# xmcd
#
# Track frame offsets:
#	150
#	21152
#	35829
#	58823
#	80968
#	101782
#	127142
#	155244
#	179566
#	200703
#	224147
#	243079
#	264959
#
# Disc length: 3797 seconds
#
# Revision: 1
# Processed by: cddbd v1.5.1PL0 Copyright (c) Steve Scherf et al.
# Submitted via: CDex 1.50Beta5
#
DISCID=d30ed30d
DTITLE=KinKi Kids - KinKi Single Selection
DYEAR=2000
DGENRE=
TTITLE0=Theme of KinKi Kids’00
TTITLE1=硝子の少年
TTITLE2=愛されるより 愛したい
TTITLE3=ジェットコースター・ロマンス
TTITLE4=全部だきしめて
TTITLE5=青の時代
TTITLE6=Happy Happy Greeting
TTITLE7=シンデレラ・クリスマス
TTITLE8=やめないで,PURE
TTITLE9=フラワー
TTITLE10=雨のMelody
TTITLE11=to Heart
TTITLE12=好きになってく 愛してく
EXTD=
EXTT0=
EXTT1=
EXTT2=
EXTT3=
EXTT4=
EXTT5=
EXTT6=
EXTT7=
EXTT8=
EXTT9=
EXTT10=
EXTT11=
EXTT12=
PLAYORDER=
